<svg width="59" height="44" viewBox="0 0 59 44" fill="none" xmlns="http://www.w3.org/2000/svg">
<g clip-path="url(#clip0_17108_490)">
<path d="M40.1944 18.737H6.64478V6.00439H40.1944V18.737ZM7.37055 18.0139H39.4686V6.72675H7.37055V18.0139Z" fill="#190B34"/>
<path d="M49.5274 31.1841H3.62878V3.00244H49.5274V31.1841ZM4.35456 30.4609H48.8043V3.72479H4.35456V30.4609Z" fill="#190B34"/>
<path d="M59 43.9995H0.615356V-0.000488281H59V43.9995ZM1.33844 43.2764H58.2742V0.722667H1.33844V43.2764Z" fill="#190B34"/>
<path fill-rule="evenodd" clip-rule="evenodd" d="M14.0234 12.5268C14.0234 11.2468 13.2347 10.6413 12.0926 10.6413H11.3714V14.4124H12.0926C13.235 14.4124 14.0234 13.8063 14.0234 12.5268ZM10.5596 9.9082H12.077C13.6783 9.9082 14.8505 10.8138 14.8505 12.5268C14.8505 14.2399 13.6783 15.1452 12.077 15.1452H10.5596V9.9082Z" fill="#190B34"/>
<path fill-rule="evenodd" clip-rule="evenodd" d="M20.2865 13.2824C20.2865 14.5466 19.4223 15.2505 18.2344 15.2505C17.0466 15.2505 16.1837 14.5469 16.1837 13.2824V9.90771H16.995V13.2589C16.9821 13.4253 17.0051 13.5925 17.0625 13.7493C17.12 13.9061 17.2105 14.0489 17.3279 14.1679C17.4454 14.2869 17.587 14.3795 17.7434 14.4394C17.8998 14.4992 18.0672 14.525 18.2344 14.515C18.4018 14.5252 18.5694 14.4996 18.726 14.4398C18.8825 14.38 19.0244 14.2875 19.142 14.1684C19.2597 14.0494 19.3503 13.9066 19.4079 13.7497C19.4655 13.5928 19.4886 13.4254 19.4758 13.2589V9.90879H20.2865V13.2824Z" fill="#190B34"/>
<path fill-rule="evenodd" clip-rule="evenodd" d="M21.3797 9.90845H25.437V10.6426H23.8132V15.1454H23.0025V10.6426H21.3792L21.3797 9.90845Z" fill="#190B34"/>
<path fill-rule="evenodd" clip-rule="evenodd" d="M31.063 13.8736C30.5151 14.7639 29.8982 15.2506 28.7641 15.2506C27.2682 15.2506 26.1567 14.1275 26.1567 12.5272C26.1431 12.1734 26.2015 11.8205 26.3285 11.4897C26.4554 11.159 26.6483 10.8573 26.8955 10.6029C27.1427 10.3485 27.439 10.1466 27.7667 10.0094C28.0943 9.87221 28.4464 9.80257 28.8018 9.80468C29.2683 9.78585 29.7301 9.90421 30.1297 10.145C30.5292 10.3858 30.8488 10.7384 31.0487 11.1589L30.4036 11.6225C30.0273 10.8972 29.5085 10.5377 28.7878 10.5377C27.7959 10.5377 26.9838 11.3755 26.9838 12.5283C26.9838 13.6653 27.7421 14.5178 28.7803 14.5178C29.4862 14.5178 30.0418 14.1811 30.4404 13.4333L31.063 13.8736Z" fill="#190B34"/>
<path fill-rule="evenodd" clip-rule="evenodd" d="M32.4122 9.90845H33.2229V12.1076H35.6723V9.90845H36.4849V15.1454H35.6723V12.8407H33.2229V15.1454H32.4122V9.90845Z" fill="#190B34"/>
<path fill-rule="evenodd" clip-rule="evenodd" d="M11.0773 24.6711C11.0773 23.3914 10.2889 22.7855 9.14677 22.7855H8.42529V26.5567H9.14677C10.2892 26.5567 11.0773 25.9511 11.0773 24.6711ZM7.61377 22.0527H9.13118C10.7322 22.0527 11.9044 22.9583 11.9044 24.6711C11.9044 26.3839 10.7322 27.2895 9.13118 27.2895H7.61377V22.0527Z" fill="#190B34"/>
<path fill-rule="evenodd" clip-rule="evenodd" d="M14.553 27.2895H15.3637V22.0525H14.553V27.2895Z" fill="#190B34"/>
<path fill-rule="evenodd" clip-rule="evenodd" d="M22.1976 26.4814C22.0378 26.7711 21.7995 27.0103 21.5099 27.1716C21.2202 27.3329 20.891 27.41 20.5595 27.3939C19.0789 27.3939 17.9965 26.2494 17.9965 24.6705C17.9862 24.3169 18.0472 23.9648 18.1759 23.6351C18.3045 23.3054 18.4982 23.0047 18.7455 22.7509C18.9927 22.497 19.2886 22.2951 19.6155 22.1571C19.9424 22.0191 20.2937 21.9478 20.6488 21.9474C21.1047 21.9321 21.556 22.0438 21.9517 22.2699C22.3475 22.4961 22.6721 22.8278 22.889 23.2277L22.2721 23.6538C22.1225 23.3503 21.8886 23.0959 21.5983 22.9208C21.3079 22.7458 20.9733 22.6573 20.634 22.666C19.6496 22.666 18.8236 23.4519 18.8236 24.6711C18.8236 25.8608 19.5373 26.6611 20.5738 26.6611C21.528 26.6611 22.0092 26.055 22.1224 25.2402H20.3482V24.5736H22.9328V27.2891H22.3925L22.1976 26.4814Z" fill="#190B34"/>
<path fill-rule="evenodd" clip-rule="evenodd" d="M25.7488 27.2895H26.5595V22.0525H25.7488V27.2895Z" fill="#190B34"/>
<path fill-rule="evenodd" clip-rule="evenodd" d="M28.9096 22.0525H32.9662V22.7853H31.3428V27.2895H30.5321V22.7853H28.9088L28.9096 22.0525Z" fill="#190B34"/>
<path fill-rule="evenodd" clip-rule="evenodd" d="M36.564 23.4741L35.9247 25.128H37.5629L36.9252 23.4741C36.8193 23.2047 36.7449 22.973 36.7449 22.973C36.7449 22.973 36.6699 23.2047 36.564 23.4741ZM36.3384 22.053H37.151L39.2539 27.29H38.3978L37.8333 25.8313H35.6543L35.0898 27.29H34.2332L36.3384 22.053Z" fill="#190B34"/>
<path fill-rule="evenodd" clip-rule="evenodd" d="M41.576 22.0525H42.3873V26.5711H45.0248V27.2895H41.576V22.0525Z" fill="#190B34"/>
<path fill-rule="evenodd" clip-rule="evenodd" d="M7.21595 35.897L6.57673 37.5509H8.21483L7.57561 35.897C7.47077 35.6275 7.39524 35.3958 7.39524 35.3958C7.39524 35.3958 7.32051 35.6275 7.21595 35.897ZM6.98988 34.4758H7.80141L9.90562 39.7128H9.0484L8.4839 38.2542H6.30604L5.74155 39.7128H4.88513L6.98988 34.4758Z" fill="#190B34"/>
<path fill-rule="evenodd" clip-rule="evenodd" d="M16.1147 38.9047C15.955 39.1945 15.7167 39.4338 15.4271 39.5951C15.1374 39.7565 14.8081 39.8334 14.4766 39.8172C12.9963 39.8172 11.9138 38.6728 11.9138 37.0941C11.9036 36.7405 11.9645 36.3885 12.0931 36.0587C12.2218 35.729 12.4154 35.4283 12.6626 35.1744C12.9099 34.9205 13.2057 34.7186 13.5326 34.5806C13.8595 34.4426 14.2108 34.3712 14.5659 34.3708C15.0218 34.3554 15.473 34.4669 15.8688 34.693C16.2645 34.9191 16.5891 35.2507 16.8061 35.6505L16.1895 36.0766C16.0398 35.7731 15.806 35.5187 15.5156 35.3437C15.2253 35.1686 14.8906 35.0801 14.5514 35.0889C13.567 35.0889 12.7409 35.8747 12.7409 37.0941C12.7409 38.2836 13.4546 39.0836 14.4914 39.0836C15.4457 39.0836 15.9268 38.4775 16.04 37.6641H14.2659V36.9969H16.8505V39.7128H16.3104L16.1147 38.9047Z" fill="#190B34"/>
<path fill-rule="evenodd" clip-rule="evenodd" d="M19.8376 34.4758H23.2937V35.1942H20.6484V36.6453H23.0835V37.3636H20.6489V38.9945H23.3165V39.7128H19.8382L19.8376 34.4758Z" fill="#190B34"/>
<path fill-rule="evenodd" clip-rule="evenodd" d="M26.1643 34.4758H26.9903L29.3507 38.1254C29.4334 38.2533 29.5089 38.3857 29.5768 38.522V34.4758H30.3563V39.7131H29.5303L27.1707 36.063C27.0882 35.9354 27.0131 35.8031 26.9457 35.6669V39.7131H26.1643V34.4758Z" fill="#190B34"/>
<path fill-rule="evenodd" clip-rule="evenodd" d="M38.0766 38.4411C37.5287 39.3314 36.9118 39.8178 35.7777 39.8178C34.2818 39.8178 33.1703 38.695 33.1703 37.0947C33.1565 36.7408 33.2149 36.3878 33.3418 36.0571C33.4686 35.7263 33.6615 35.4245 33.9086 35.17C34.1557 34.9155 34.452 34.7135 34.7797 34.5763C35.1073 34.439 35.4594 34.3693 35.8148 34.3713C36.2813 34.3525 36.743 34.4709 37.1424 34.7116C37.5419 34.9523 37.8614 35.3049 38.0612 35.7252L37.4177 36.1894C37.0414 35.4641 36.5226 35.1047 35.8019 35.1047C34.81 35.1047 33.998 35.9424 33.998 37.0952C33.998 38.2322 34.7563 39.0847 35.7941 39.0847C36.5003 39.0847 37.0559 38.748 37.4545 38L38.0766 38.4411Z" fill="#190B34"/>
<path fill-rule="evenodd" clip-rule="evenodd" d="M40.8286 39.7125H41.6393V34.4758H40.8286V39.7125Z" fill="#190B34"/>
<path fill-rule="evenodd" clip-rule="evenodd" d="M44.7023 34.4758H48.1583V35.1942H45.513V36.6453H47.9478V37.3636H45.513V38.9945H48.1806V39.7128H44.7023V34.4758Z" fill="#190B34"/>
<path fill-rule="evenodd" clip-rule="evenodd" d="M53.0097 36.6751C54.143 36.8921 54.7075 37.3635 54.7075 38.2385C54.7075 39.084 53.9715 39.8187 52.7839 39.8187C51.5299 39.8187 50.8009 39.1004 50.6281 38.1654L51.3417 37.799C51.4909 38.659 51.9796 39.1156 52.7769 39.1156C53.4758 39.1156 53.8959 38.734 53.8959 38.2703C53.8959 37.7237 53.461 37.484 52.5589 37.3126C51.5823 37.1251 50.8686 36.654 50.8686 35.7712C50.8686 34.9409 51.6122 34.372 52.6712 34.372C53.0941 34.3462 53.5137 34.4598 53.8654 34.6951C54.2171 34.9304 54.4813 35.2745 54.6174 35.6742L53.9723 36.0492C53.8992 35.7622 53.7294 35.5089 53.4913 35.3318C53.2531 35.1547 52.9612 35.0644 52.6643 35.0761C52.1086 35.0761 51.6353 35.3089 51.6353 35.7575C51.6353 36.2289 52.0863 36.4981 53.0105 36.6773" fill="#190B34"/>
<path d="M40.1944 18.737H6.64478V6.00439H40.1944V18.737ZM7.37055 18.0139H39.4686V6.72675H7.37055V18.0139Z" fill="#190B34"/>
<path d="M49.5274 31.1841H3.62878V3.00244H49.5274V31.1841ZM4.35456 30.4609H48.8043V3.72479H4.35456V30.4609Z" fill="#190B34"/>
<path fill-rule="evenodd" clip-rule="evenodd" d="M14.0234 12.5268C14.0234 11.2468 13.2347 10.6413 12.0926 10.6413H11.3714V14.4124H12.0926C13.235 14.4124 14.0234 13.8063 14.0234 12.5268ZM10.5596 9.9082H12.077C13.6783 9.9082 14.8505 10.8138 14.8505 12.5268C14.8505 14.2399 13.6783 15.1452 12.077 15.1452H10.5596V9.9082Z" fill="#190B34"/>
<path fill-rule="evenodd" clip-rule="evenodd" d="M20.2865 13.2824C20.2865 14.5466 19.4223 15.2505 18.2344 15.2505C17.0466 15.2505 16.1837 14.5469 16.1837 13.2824V9.90771H16.995V13.2589C16.9821 13.4253 17.0051 13.5925 17.0625 13.7493C17.12 13.9061 17.2105 14.0489 17.3279 14.1679C17.4454 14.2869 17.587 14.3795 17.7434 14.4394C17.8998 14.4992 18.0672 14.525 18.2344 14.515C18.4018 14.5252 18.5694 14.4996 18.726 14.4398C18.8825 14.38 19.0244 14.2875 19.142 14.1684C19.2597 14.0494 19.3503 13.9066 19.4079 13.7497C19.4655 13.5928 19.4886 13.4254 19.4758 13.2589V9.90879H20.2865V13.2824Z" fill="#190B34"/>
<path fill-rule="evenodd" clip-rule="evenodd" d="M21.3797 9.90845H25.437V10.6426H23.8132V15.1454H23.0025V10.6426H21.3792L21.3797 9.90845Z" fill="#190B34"/>
<path fill-rule="evenodd" clip-rule="evenodd" d="M31.063 13.8736C30.5151 14.7639 29.8982 15.2506 28.7641 15.2506C27.2682 15.2506 26.1567 14.1275 26.1567 12.5272C26.1431 12.1734 26.2015 11.8205 26.3285 11.4897C26.4554 11.159 26.6483 10.8573 26.8955 10.6029C27.1427 10.3485 27.439 10.1466 27.7667 10.0094C28.0943 9.87221 28.4464 9.80257 28.8018 9.80468C29.2683 9.78585 29.7301 9.90421 30.1297 10.145C30.5292 10.3858 30.8488 10.7384 31.0487 11.1589L30.4036 11.6225C30.0273 10.8972 29.5085 10.5377 28.7878 10.5377C27.7959 10.5377 26.9838 11.3755 26.9838 12.5283C26.9838 13.6653 27.7421 14.5178 28.7803 14.5178C29.4862 14.5178 30.0418 14.1811 30.4404 13.4333L31.063 13.8736Z" fill="#190B34"/>
<path fill-rule="evenodd" clip-rule="evenodd" d="M32.4122 9.90845H33.2229V12.1076H35.6723V9.90845H36.4849V15.1454H35.6723V12.8407H33.2229V15.1454H32.4122V9.90845Z" fill="#190B34"/>
<path fill-rule="evenodd" clip-rule="evenodd" d="M11.0773 24.6711C11.0773 23.3914 10.2889 22.7855 9.14677 22.7855H8.42529V26.5567H9.14677C10.2892 26.5567 11.0773 25.9511 11.0773 24.6711ZM7.61377 22.0527H9.13118C10.7322 22.0527 11.9044 22.9583 11.9044 24.6711C11.9044 26.3839 10.7322 27.2895 9.13118 27.2895H7.61377V22.0527Z" fill="#190B34"/>
<path fill-rule="evenodd" clip-rule="evenodd" d="M14.553 27.2895H15.3637V22.0525H14.553V27.2895Z" fill="#190B34"/>
<path fill-rule="evenodd" clip-rule="evenodd" d="M22.1976 26.4814C22.0378 26.7711 21.7995 27.0103 21.5099 27.1716C21.2202 27.3329 20.891 27.41 20.5595 27.3939C19.0789 27.3939 17.9965 26.2494 17.9965 24.6705C17.9862 24.3169 18.0472 23.9648 18.1759 23.6351C18.3045 23.3054 18.4982 23.0047 18.7455 22.7509C18.9927 22.497 19.2886 22.2951 19.6155 22.1571C19.9424 22.0191 20.2937 21.9478 20.6488 21.9474C21.1047 21.9321 21.556 22.0438 21.9517 22.2699C22.3475 22.4961 22.6721 22.8278 22.889 23.2277L22.2721 23.6538C22.1225 23.3503 21.8886 23.0959 21.5983 22.9208C21.3079 22.7458 20.9733 22.6573 20.634 22.666C19.6496 22.666 18.8236 23.4519 18.8236 24.6711C18.8236 25.8608 19.5373 26.6611 20.5738 26.6611C21.528 26.6611 22.0092 26.055 22.1224 25.2402H20.3482V24.5736H22.9328V27.2891H22.3925L22.1976 26.4814Z" fill="#190B34"/>
<path fill-rule="evenodd" clip-rule="evenodd" d="M25.7488 27.2895H26.5595V22.0525H25.7488V27.2895Z" fill="#190B34"/>
<path fill-rule="evenodd" clip-rule="evenodd" d="M28.9096 22.0525H32.9662V22.7853H31.3428V27.2895H30.5321V22.7853H28.9088L28.9096 22.0525Z" fill="#190B34"/>
<path fill-rule="evenodd" clip-rule="evenodd" d="M36.564 23.4741L35.9247 25.128H37.5629L36.9252 23.4741C36.8193 23.2047 36.7449 22.973 36.7449 22.973C36.7449 22.973 36.6699 23.2047 36.564 23.4741ZM36.3384 22.053H37.151L39.2539 27.29H38.3978L37.8333 25.8313H35.6543L35.0898 27.29H34.2332L36.3384 22.053Z" fill="#190B34"/>
<path fill-rule="evenodd" clip-rule="evenodd" d="M41.576 22.0525H42.3873V26.5711H45.0248V27.2895H41.576V22.0525Z" fill="#190B34"/>
<path fill-rule="evenodd" clip-rule="evenodd" d="M7.21595 35.897L6.57673 37.5509H8.21483L7.57561 35.897C7.47077 35.6275 7.39524 35.3958 7.39524 35.3958C7.39524 35.3958 7.32051 35.6275 7.21595 35.897ZM6.98988 34.4758H7.80141L9.90562 39.7128H9.0484L8.4839 38.2542H6.30604L5.74155 39.7128H4.88513L6.98988 34.4758Z" fill="#190B34"/>
<path fill-rule="evenodd" clip-rule="evenodd" d="M16.1147 38.9047C15.955 39.1945 15.7167 39.4338 15.4271 39.5951C15.1374 39.7565 14.8081 39.8334 14.4766 39.8172C12.9963 39.8172 11.9138 38.6728 11.9138 37.0941C11.9036 36.7405 11.9645 36.3885 12.0931 36.0587C12.2218 35.729 12.4154 35.4283 12.6626 35.1744C12.9099 34.9205 13.2057 34.7186 13.5326 34.5806C13.8595 34.4426 14.2108 34.3712 14.5659 34.3708C15.0218 34.3554 15.473 34.4669 15.8688 34.693C16.2645 34.9191 16.5891 35.2507 16.8061 35.6505L16.1895 36.0766C16.0398 35.7731 15.806 35.5187 15.5156 35.3437C15.2253 35.1686 14.8906 35.0801 14.5514 35.0889C13.567 35.0889 12.7409 35.8747 12.7409 37.0941C12.7409 38.2836 13.4546 39.0836 14.4914 39.0836C15.4457 39.0836 15.9268 38.4775 16.04 37.6641H14.2659V36.9969H16.8505V39.7128H16.3104L16.1147 38.9047Z" fill="#190B34"/>
<path fill-rule="evenodd" clip-rule="evenodd" d="M19.8376 34.4758H23.2937V35.1942H20.6484V36.6453H23.0835V37.3636H20.6489V38.9945H23.3165V39.7128H19.8382L19.8376 34.4758Z" fill="#190B34"/>
<path fill-rule="evenodd" clip-rule="evenodd" d="M26.1643 34.4758H26.9903L29.3507 38.1254C29.4334 38.2533 29.5089 38.3857 29.5768 38.522V34.4758H30.3563V39.7131H29.5303L27.1707 36.063C27.0882 35.9354 27.0131 35.8031 26.9457 35.6669V39.7131H26.1643V34.4758Z" fill="#190B34"/>
<path fill-rule="evenodd" clip-rule="evenodd" d="M38.0766 38.4411C37.5287 39.3314 36.9118 39.8178 35.7777 39.8178C34.2818 39.8178 33.1703 38.695 33.1703 37.0947C33.1565 36.7408 33.2149 36.3878 33.3418 36.0571C33.4686 35.7263 33.6615 35.4245 33.9086 35.17C34.1557 34.9155 34.452 34.7135 34.7797 34.5763C35.1073 34.439 35.4594 34.3693 35.8148 34.3713C36.2813 34.3525 36.743 34.4709 37.1424 34.7116C37.5419 34.9523 37.8614 35.3049 38.0612 35.7252L37.4177 36.1894C37.0414 35.4641 36.5226 35.1047 35.8019 35.1047C34.81 35.1047 33.998 35.9424 33.998 37.0952C33.998 38.2322 34.7563 39.0847 35.7941 39.0847C36.5003 39.0847 37.0559 38.748 37.4545 38L38.0766 38.4411Z" fill="#190B34"/>
<path fill-rule="evenodd" clip-rule="evenodd" d="M40.8286 39.7125H41.6393V34.4758H40.8286V39.7125Z" fill="#190B34"/>
<path fill-rule="evenodd" clip-rule="evenodd" d="M44.7023 34.4758H48.1583V35.1942H45.513V36.6453H47.9478V37.3636H45.513V38.9945H48.1806V39.7128H44.7023V34.4758Z" fill="#190B34"/>
</g>
<defs>
<clipPath id="clip0_17108_490">
<rect width="58.3846" height="44" fill="white" transform="translate(0.615356 0.000976562)"/>
</clipPath>
</defs>
</svg>
