<svg width="24" height="24" viewBox="0 0 24 24" fill="none" xmlns="http://www.w3.org/2000/svg">
<path d="M11.9969 2.00723C14.8355 2.00723 17.6742 2.01503 20.5128 2.00099C21.2689 1.99787 21.8813 2.53938 21.9829 3.20574C21.9938 3.27908 22.0016 3.35399 22.0016 3.4289C22.0016 9.14677 22.0016 14.8646 22.0016 20.581C22.0016 21.3394 21.3986 21.9667 20.644 21.9995C20.594 22.0011 20.544 22.0011 20.494 22.0011C14.8293 22.0011 9.16453 22.0011 3.49977 22.0011C2.78894 22.0011 2.25152 21.6203 2.06405 20.9742C2.02343 20.8322 2.00312 20.6808 2.00312 20.5326C2 14.8459 2 9.16082 2 3.47415C2 2.62833 2.61241 2.01035 3.46071 2.00723C4.93236 2.00255 6.40558 2.00723 7.87723 2.00723C9.25045 2.00723 10.6221 2.00723 11.9953 2.00723H11.9969ZM12.6671 10.5815C12.6671 10.1835 12.6593 9.84022 12.6702 9.49846C12.6749 9.33148 12.6281 9.27061 12.45 9.27217C11.6329 9.28154 10.8158 9.2831 9.99878 9.27217C9.80506 9.26905 9.75975 9.33148 9.75975 9.51718C9.76444 12.5571 9.76444 15.0782 9.75975 18.1166C9.75975 18.3023 9.80818 18.3678 10.0003 18.3662C10.8486 18.3569 11.697 18.3584 12.5453 18.3662C12.7327 18.3678 12.7874 18.3116 12.7874 18.1212C12.7796 16.5981 12.778 15.594 12.7874 14.0709C12.789 13.7478 12.8093 13.4217 12.8655 13.1049C12.9796 12.4588 13.2748 11.9345 13.9669 11.7613C14.1747 11.7098 14.3981 11.6973 14.6137 11.7004C15.3355 11.7082 15.776 12.0422 15.9354 12.7507C16.0213 13.1299 16.0541 13.5262 16.0572 13.9164C16.0697 15.4894 16.065 16.5435 16.0588 18.1166C16.0588 18.2991 16.1072 18.3694 16.3009 18.3678C17.1493 18.3584 17.9976 18.36 18.8459 18.3678C19.0271 18.3694 19.0771 18.3101 19.0771 18.1322C19.0708 16.4405 19.0708 15.2678 19.0771 13.5762C19.0786 12.8833 19.0427 12.1935 18.8834 11.5163C18.6662 10.5908 18.2397 9.80276 17.3305 9.39546C16.429 8.99127 15.4808 8.91013 14.5231 9.16138C13.7357 9.36737 13.1374 9.84958 12.6702 10.5846L12.6671 10.5815ZM4.9308 14.074C4.9308 15.6033 4.93236 16.6122 4.92768 18.1415C4.92768 18.2976 4.96049 18.3662 5.13233 18.3647C6.00564 18.3584 6.87894 18.3584 7.75225 18.3647C7.91003 18.3647 7.95378 18.3054 7.95378 18.154C7.95065 15.0906 7.95065 12.5462 7.95378 9.48129C7.95378 9.31275 7.89597 9.27217 7.73662 9.27374C6.87582 9.27998 6.01501 9.28154 5.15421 9.27374C4.9683 9.27217 4.92612 9.33148 4.92768 9.50782C4.93393 11.0309 4.9308 12.5525 4.9308 14.0756V14.074ZM6.43682 8.19951C7.4023 8.19951 8.17562 7.43328 8.17718 6.4751C8.17718 5.50444 7.40542 4.72416 6.44151 4.72416C5.46978 4.72416 4.70427 5.49507 4.70427 6.47042C4.70427 7.43328 5.47134 8.19951 6.43682 8.19951Z" fill="#190B34"/>
</svg>
