<svg width="50" height="12" viewBox="0 0 50 12" fill="none" xmlns="http://www.w3.org/2000/svg">
<g clip-path="url(#clip0_17108_573)">
<path fill-rule="evenodd" clip-rule="evenodd" d="M0.725837 9.86472L1.36641 8.62722C1.47612 8.43284 1.73498 8.46284 1.83041 8.53722C1.88469 8.56722 2.86641 9.35784 3.76641 9.35784C4.31155 9.35784 4.70698 8.98472 4.70698 8.46284C4.70698 7.83659 4.22984 7.35909 3.30241 6.95659C2.13041 6.45034 0.657837 5.45034 0.657837 3.66159C0.657837 2.18534 1.70755 0.694092 3.80698 0.694092C5.22469 0.694092 6.31555 1.48409 6.72469 1.81284C6.88812 1.91659 6.86127 2.18534 6.80641 2.28972L6.11098 3.43722C6.01555 3.60222 5.77041 3.73597 5.64755 3.63159C5.52469 3.55659 4.52984 2.73659 3.69784 2.73659C3.20755 2.73659 2.83898 3.09472 2.83898 3.49722C2.83898 4.04909 3.24812 4.46659 4.32527 4.94409C5.38869 5.40597 7.07898 6.31597 7.07898 8.34347C7.07898 9.87972 5.86584 11.4303 3.86184 11.4303C2.08927 11.4303 1.10755 10.6247 0.793837 10.2822C0.657837 10.1328 0.616694 10.0735 0.725837 9.86472Z" fill="#190B34"/>
<path fill-rule="evenodd" clip-rule="evenodd" d="M8.17139 1.12652C8.17139 0.977148 8.28053 0.842773 8.4171 0.842773H11.7434C14.3748 0.842773 16.5285 3.18465 16.5285 6.04715C16.5285 8.94027 14.3748 11.2809 11.7434 11.2809H8.4171C8.28053 11.2809 8.17139 11.1471 8.17139 10.9978V1.12652ZM11.6074 9.07402C13.148 9.07402 14.2657 7.74715 14.2657 6.04715C14.2657 4.36215 13.148 3.03527 11.6074 3.03527H10.2982V9.07402H11.6074Z" fill="#190B34"/>
<path fill-rule="evenodd" clip-rule="evenodd" d="M17.6082 0.962217C17.6082 0.813467 17.731 0.694092 17.867 0.694092H18.2082L23.6476 6.41972H23.6613V1.12659C23.6613 0.977217 23.7704 0.842842 23.9202 0.842842H25.5562C25.6927 0.842842 25.815 0.977217 25.815 1.12659V11.1616C25.815 11.311 25.6927 11.4303 25.5562 11.4303H25.3384C25.2973 11.4303 25.1882 11.3853 25.1607 11.356L19.7756 5.43597H19.7619V10.9978C19.7619 11.1472 19.6527 11.281 19.503 11.281H17.8807C17.7442 11.281 17.6219 11.1472 17.6219 10.9978L17.6082 0.962217Z" fill="#190B34"/>
<path fill-rule="evenodd" clip-rule="evenodd" d="M32.7065 11.7603C31.2814 11.7603 29.9431 11.1528 28.9385 10.0484C27.9322 8.94278 27.3779 7.47278 27.3779 5.90841C27.3779 4.34341 27.9322 2.87341 28.9385 1.76778C29.9431 0.664033 31.2814 0.0559082 32.7065 0.0559082C34.1322 0.0559082 35.4705 0.664033 36.4751 1.76778L42.2751 8.14091C42.8168 8.73653 43.5385 9.06403 44.3076 9.06403C45.0756 9.06403 45.7974 8.73653 46.3396 8.14091C46.8819 7.54528 47.1808 6.75216 47.1808 5.90841C47.1808 5.06466 46.8819 4.27216 46.3396 3.67528C45.7968 3.07966 45.0756 2.75216 44.3076 2.75216C43.5391 2.75216 42.8174 3.07966 42.2751 3.67528L41.2831 4.76778L39.5465 2.85966L40.5391 1.76778C41.5436 0.664033 42.8819 0.0559082 44.3076 0.0559082C45.7328 0.0559082 47.0705 0.664033 48.0756 1.76778C49.0819 2.87403 49.6362 4.34403 49.6362 5.90841C49.6362 7.47216 49.0819 8.94278 48.0756 10.0484C47.0705 11.1528 45.7328 11.7603 44.3076 11.7603C42.8819 11.7603 41.5436 11.1528 40.5391 10.0484L34.7385 3.67528C34.1968 3.07966 33.4751 2.75216 32.7065 2.75216C31.9385 2.75216 31.2168 3.07966 30.6751 3.67528C30.1316 4.27278 29.8328 5.06528 29.8328 5.90841C29.8328 6.75153 30.1316 7.54403 30.6745 8.14091C31.2168 8.73653 31.9385 9.06403 32.7065 9.06403C33.4751 9.06403 34.1968 8.73653 34.7385 8.14091L35.7311 7.04903L37.4671 8.95653L36.4751 10.0484C35.4699 11.1528 34.1316 11.7603 32.7065 11.7603Z" fill="#706A7C"/>
</g>
<defs>
<clipPath id="clip0_17108_573">
<rect width="49.7143" height="12" fill="white" transform="translate(0.285767 0.000976562)"/>
</clipPath>
</defs>
</svg>
