<svg width="102" height="23" viewBox="0 0 102 23" fill="none" xmlns="http://www.w3.org/2000/svg">
<path d="M1.44751 3.89448L10.7051 10.5431L9.43783 2.64209L1.44751 3.89448Z" fill="#706A7C"/>
<path d="M0.918213 18.11L10.1802 11.4614L2.18546 10.209L0.918213 18.11Z" fill="#706A7C"/>
<path d="M14.4356 23.001L10.9007 12.2437L7.22791 19.3713L14.4401 23.001H14.4356Z" fill="#706A7C"/>
<path d="M23.3196 11.8086H11.8744L17.597 17.4641L23.3196 11.8086Z" fill="#706A7C"/>
<path d="M15.2935 0.000976562L11.7542 10.7583L18.9663 7.1286L15.2935 0.000976562Z" fill="#706A7C"/>
<path d="M30.3584 6.82104V11.5933C30.3584 13.0215 30.9053 13.7465 31.8791 13.7465C32.8529 13.7465 33.422 13.0566 33.422 11.5933V6.82104H35.3162V11.4703C35.3162 14.0278 34.009 15.2494 31.8169 15.2494C29.6247 15.2494 28.4553 14.0937 28.4553 11.4483V6.82104H30.3584Z" fill="#190B34"/>
<path d="M41.9993 15.1132L41.2389 13.6103C40.9277 13.0303 40.7276 12.5996 40.4919 12.1206H40.4652C40.2918 12.5996 40.0784 13.0303 39.816 13.6103L39.1179 15.1132H36.9525L39.3803 10.9166L37.0414 6.82104H39.2202L39.9539 8.3327C40.2029 8.83805 40.3896 9.24233 40.5897 9.71252H40.6164C40.8165 9.1852 40.9766 8.81608 41.19 8.3327L41.9014 6.82104H44.0669L41.7014 10.8682L44.1914 15.1132H41.9993Z" fill="#190B34"/>
<path d="M47.3172 12.5029L46.4457 15.1132H45.3252L48.1754 6.82104H49.4826L52.3462 15.1132H51.1901L50.2919 12.5029H47.3172ZM50.0696 11.668L49.247 9.28188C49.0602 8.74137 48.9357 8.24921 48.8112 7.77022H48.7846C48.6601 8.26239 48.5222 8.76774 48.3621 9.27309L47.5395 11.6724H50.0651L50.0696 11.668Z" fill="#190B34"/>
<path d="M59.8784 14.8407C59.4782 15.0385 58.6823 15.2362 57.664 15.2362C55.2985 15.2362 53.5199 13.7597 53.5199 11.0396C53.5199 8.31951 55.2985 6.68481 57.9041 6.68481C58.949 6.68481 59.6116 6.90453 59.8961 7.05394L59.6338 7.92841C59.2247 7.73067 58.6378 7.58566 57.9397 7.58566C55.9744 7.58566 54.6671 8.82925 54.6671 11.0045C54.6671 13.0346 55.8499 14.3398 57.8908 14.3398C58.5489 14.3398 59.2247 14.2035 59.6605 13.997L59.8828 14.8451L59.8784 14.8407Z" fill="#190B34"/>
<path d="M63.0399 12.5029L62.1684 15.1132H61.0479L63.898 6.82104H65.2053L68.0688 15.1132H66.9128L66.0146 12.5029H63.0399ZM65.7922 11.668L64.9696 9.28188C64.7829 8.74137 64.6584 8.24921 64.5339 7.77022H64.5072C64.3827 8.26239 64.2449 8.76774 64.0848 9.27309L63.2622 11.6724H65.7878L65.7922 11.668Z" fill="#190B34"/>
<path d="M69.9276 6.9309C70.5857 6.83423 71.3727 6.75952 72.2309 6.75952C73.7872 6.75952 74.8943 7.11546 75.628 7.79219C76.375 8.46892 76.8108 9.42689 76.8108 10.7716C76.8108 12.1162 76.3883 13.2324 75.6013 13.997C74.8187 14.7704 73.5204 15.1923 71.893 15.1923C71.1193 15.1923 70.4745 15.1571 69.9276 15.0956V6.9309ZM71.0126 14.2651C71.2882 14.3134 71.684 14.3266 72.1064 14.3266C74.423 14.3266 75.6814 13.0478 75.6814 10.8067C75.6947 8.85123 74.5742 7.60763 72.2842 7.60763C71.724 7.60763 71.3016 7.65597 71.0126 7.71749V14.2651Z" fill="#190B34"/>
<path d="M83.187 11.2242H79.9233V14.2123H83.5605V15.1088H78.8428V6.82104H83.3737V7.71749H79.9233V10.3365H83.187V11.2242Z" fill="#190B34"/>
<path d="M92.6624 11.4703C92.6002 10.3145 92.5246 8.92154 92.5379 7.88887H92.5023C92.2178 8.86002 91.8665 9.89269 91.4441 11.0396L89.9634 15.0648H89.1408L87.7846 11.1143C87.3844 9.94542 87.051 8.8732 86.8153 7.88887H86.7886C86.7619 8.92154 86.6997 10.3145 86.6285 11.5538L86.4062 15.1088H85.3746L85.9616 6.81665H87.3444L88.7762 10.8287C89.123 11.8482 89.412 12.7622 89.621 13.6235H89.6566C89.87 12.7886 90.1679 11.8745 90.5414 10.8287L92.0355 6.81665H93.4183L93.943 15.1088H92.8847L92.6713 11.4659L92.6624 11.4703Z" fill="#190B34"/>
<path d="M98.087 15.1132V11.5933L95.4369 6.82104H96.6686L97.8513 9.1105C98.1759 9.73889 98.4249 10.2442 98.6873 10.8199H98.7139C98.9496 10.2794 99.2386 9.73889 99.5588 9.1105L100.768 6.82104H102L99.1853 11.5845V15.1176H98.0914L98.087 15.1132Z" fill="#190B34"/>
</svg>
